<mxfile host="app.diagrams.net" modified="2023-05-11T10:52:35.776Z" agent="Mozilla/5.0 (Windows NT 10.0; Win64; x64) AppleWebKit/537.36 (KHTML, like Gecko) Chrome/112.0.0.0 Safari/537.36" etag="dNUkjJhz3anE6NJe_nRD" version="21.2.9" type="github">
  <diagram name="페이지-1" id="B1S1XOmkKKGzLpliCROC">
    <mxGraphModel dx="1434" dy="756" grid="1" gridSize="10" guides="1" tooltips="1" connect="1" arrows="1" fold="1" page="1" pageScale="1" pageWidth="827" pageHeight="1169" math="0" shadow="0">
      <root>
        <mxCell id="0" />
        <mxCell id="1" parent="0" />
        <mxCell id="5Ol7_x0GoHPBHIyokY1g-1" value="0..*" style="text;html=1;align=center;verticalAlign=middle;resizable=0;points=[];autosize=1;strokeColor=none;fillColor=none;" parent="1" vertex="1">
          <mxGeometry x="750" y="815" width="40" height="30" as="geometry" />
        </mxCell>
        <mxCell id="5Ol7_x0GoHPBHIyokY1g-2" value="지원 정보 제공" style="text;html=1;align=center;verticalAlign=middle;resizable=0;points=[];autosize=1;strokeColor=none;fillColor=none;" parent="1" vertex="1">
          <mxGeometry x="670" y="838" width="100" height="30" as="geometry" />
        </mxCell>
        <mxCell id="5Ol7_x0GoHPBHIyokY1g-3" value="&lt;p style=&quot;margin:0px;margin-top:4px;text-align:center;&quot;&gt;&lt;i&gt;&amp;lt;&amp;lt;boundary&amp;gt;&amp;gt;&lt;/i&gt;&lt;br&gt;&lt;b&gt;User Interface::RecruitinquiryUI&lt;/b&gt;&lt;/p&gt;&lt;hr size=&quot;1&quot;&gt;&lt;p style=&quot;margin:0px;margin-left:4px;&quot;&gt;&lt;br&gt;&lt;/p&gt;&lt;hr size=&quot;1&quot;&gt;&lt;p style=&quot;margin:0px;margin-left:4px;&quot;&gt;startInterface()&lt;/p&gt;&lt;p style=&quot;margin:0px;margin-left:4px;&quot;&gt;searchRecruitInfo()&lt;/p&gt;" style="verticalAlign=top;align=left;overflow=fill;fontSize=12;fontFamily=Helvetica;html=1;whiteSpace=wrap;" parent="1" vertex="1">
          <mxGeometry x="140" y="580" width="190" height="140" as="geometry" />
        </mxCell>
        <mxCell id="5Ol7_x0GoHPBHIyokY1g-5" value="&lt;p style=&quot;margin:0px;margin-top:4px;text-align:center;&quot;&gt;&lt;i&gt;&amp;lt;&amp;lt;control&amp;gt;&amp;gt;&lt;/i&gt;&lt;br&gt;&lt;b&gt;Control::Recruitinquiry&lt;/b&gt;&lt;/p&gt;&lt;hr size=&quot;1&quot;&gt;&lt;p style=&quot;margin:0px;margin-left:4px;&quot;&gt;&lt;br&gt;&lt;/p&gt;&lt;hr size=&quot;1&quot;&gt;&lt;p style=&quot;margin:0px;margin-left:4px;&quot;&gt;showRecruitInfo()&lt;/p&gt;" style="verticalAlign=top;align=left;overflow=fill;fontSize=12;fontFamily=Helvetica;html=1;whiteSpace=wrap;" parent="1" vertex="1">
          <mxGeometry x="360" y="580" width="190" height="140" as="geometry" />
        </mxCell>
        <mxCell id="5Ol7_x0GoHPBHIyokY1g-9" value="&lt;p style=&quot;margin:0px;margin-top:4px;text-align:center;&quot;&gt;&lt;i&gt;&amp;lt;&amp;lt;control&amp;gt;&amp;gt;&lt;/i&gt;&lt;br&gt;&lt;b&gt;Control::Applyfor&lt;/b&gt;&lt;/p&gt;&lt;hr size=&quot;1&quot;&gt;&lt;p style=&quot;margin:0px;margin-left:4px;&quot;&gt;&lt;br&gt;&lt;/p&gt;&lt;hr size=&quot;1&quot;&gt;&lt;p style=&quot;margin:0px;margin-left:4px;&quot;&gt;showRecruitInfoDetail()&lt;/p&gt;&lt;p style=&quot;margin:0px;margin-left:4px;&quot;&gt;applyforCompany()&lt;/p&gt;" style="verticalAlign=top;align=left;overflow=fill;fontSize=12;fontFamily=Helvetica;html=1;whiteSpace=wrap;" parent="1" vertex="1">
          <mxGeometry x="580" y="580" width="190" height="140" as="geometry" />
        </mxCell>
        <mxCell id="5Ol7_x0GoHPBHIyokY1g-10" value="&lt;p style=&quot;margin:0px;margin-top:4px;text-align:center;&quot;&gt;&lt;i&gt;&amp;lt;&amp;lt;boundary&amp;gt;&amp;gt;&lt;/i&gt;&lt;br&gt;&lt;b&gt;User Interface::ApplyforUI&lt;/b&gt;&lt;/p&gt;&lt;hr size=&quot;1&quot;&gt;&lt;p style=&quot;margin:0px;margin-left:4px;&quot;&gt;&lt;br&gt;&lt;/p&gt;&lt;hr size=&quot;1&quot;&gt;&lt;p style=&quot;margin:0px;margin-left:4px;&quot;&gt;startInterface()&lt;/p&gt;&lt;p style=&quot;margin:0px;margin-left:4px;&quot;&gt;selectwantApplyInfo()&lt;/p&gt;&lt;p style=&quot;margin:0px;margin-left:4px;&quot;&gt;applyforInfo()&lt;/p&gt;" style="verticalAlign=top;align=left;overflow=fill;fontSize=12;fontFamily=Helvetica;html=1;whiteSpace=wrap;" parent="1" vertex="1">
          <mxGeometry x="790" y="580" width="190" height="140" as="geometry" />
        </mxCell>
        <mxCell id="5Ol7_x0GoHPBHIyokY1g-11" value="1" style="endArrow=open;html=1;endSize=12;startArrow=diamondThin;startSize=14;startFill=1;edgeStyle=orthogonalEdgeStyle;align=left;verticalAlign=bottom;rounded=0;" parent="1" edge="1">
          <mxGeometry x="-1" y="3" relative="1" as="geometry">
            <mxPoint x="660" y="840" as="sourcePoint" />
            <mxPoint x="790" y="840" as="targetPoint" />
          </mxGeometry>
        </mxCell>
        <mxCell id="5Ol7_x0GoHPBHIyokY1g-12" value="&lt;p style=&quot;margin:0px;margin-top:4px;text-align:center;&quot;&gt;&lt;i&gt;&amp;lt;&amp;lt;entity&amp;gt;&amp;gt;&lt;/i&gt;&lt;br&gt;&lt;b&gt;Apply&lt;/b&gt;&lt;/p&gt;&lt;hr size=&quot;1&quot;&gt;&lt;p style=&quot;margin:0px;margin-left:4px;&quot;&gt;Deadline&lt;/p&gt;&lt;p style=&quot;margin:0px;margin-left:4px;&quot;&gt;NumberOfPeople&lt;/p&gt;&lt;p style=&quot;margin:0px;margin-left:4px;&quot;&gt;CompanyName&lt;/p&gt;&lt;p style=&quot;margin:0px;margin-left:4px;&quot;&gt;Work&lt;/p&gt;&lt;hr size=&quot;1&quot;&gt;&lt;p style=&quot;margin:0px;margin-left:4px;&quot;&gt;Applyinfo()&lt;/p&gt;" style="verticalAlign=top;align=left;overflow=fill;fontSize=12;fontFamily=Helvetica;html=1;whiteSpace=wrap;" parent="1" vertex="1">
          <mxGeometry x="790" y="740" width="190" height="180" as="geometry" />
        </mxCell>
        <mxCell id="5Ol7_x0GoHPBHIyokY1g-16" value="&lt;p style=&quot;margin:0px;margin-top:4px;text-align:center;&quot;&gt;&lt;i&gt;&amp;lt;&amp;lt;entity&amp;gt;&amp;gt;&lt;/i&gt;&lt;br&gt;&lt;b&gt;Recruit&lt;/b&gt;&lt;/p&gt;&lt;hr size=&quot;1&quot;&gt;&lt;p style=&quot;margin:0px;margin-left:4px;&quot;&gt;Deadline&lt;/p&gt;&lt;p style=&quot;margin:0px;margin-left:4px;&quot;&gt;NumberOfPeople&lt;/p&gt;&lt;p style=&quot;margin:0px;margin-left:4px;&quot;&gt;CompanyName&lt;/p&gt;&lt;p style=&quot;margin:0px;margin-left:4px;&quot;&gt;Work&lt;/p&gt;&lt;hr size=&quot;1&quot;&gt;&lt;p style=&quot;margin:0px;margin-left:4px;&quot;&gt;getRecruitInfolist()&lt;/p&gt;&lt;p style=&quot;margin:0px;margin-left:4px;&quot;&gt;sortbyCompanyName()&lt;/p&gt;&lt;p style=&quot;margin:0px;margin-left:4px;&quot;&gt;getRecruitdetail()&lt;/p&gt;&lt;p style=&quot;margin:0px;margin-left:4px;&quot;&gt;addNewApply()&lt;/p&gt;" style="verticalAlign=top;align=left;overflow=fill;fontSize=12;fontFamily=Helvetica;html=1;whiteSpace=wrap;" parent="1" vertex="1">
          <mxGeometry x="469" y="740" width="190" height="180" as="geometry" />
        </mxCell>
      </root>
    </mxGraphModel>
  </diagram>
</mxfile>
